<svg width="32" height="32" viewBox="0 0 32 32" fill="none" xmlns="http://www.w3.org/2000/svg">
<path d="M20.9999 12.629V8.58631C21.0066 5.80231 18.7546 3.53964 15.9706 3.53297C13.1852 3.52764 10.9239 5.77964 10.9172 8.56364V12.629" stroke="#52002C" stroke-width="1.5" stroke-linecap="round" stroke-linejoin="round"/>
<path fill-rule="evenodd" clip-rule="evenodd" d="M3.93335 18.9434C3.93335 11.8847 6.94002 9.53137 15.9587 9.53137C24.9774 9.53137 27.984 11.8847 27.984 18.9434C27.984 26.0007 24.9774 28.354 15.9587 28.354C6.94002 28.354 3.93335 26.0007 3.93335 18.9434Z" stroke="#52002C" stroke-width="1.5" stroke-linecap="round" stroke-linejoin="round"/>
<circle cx="25.5" cy="6.5" r="6" fill="#D16F9A" stroke="#FADFDE"/>
<path d="M27.7549 10H23.4043V9.22217L25.0698 7.53467C25.3921 7.20654 25.6572 6.92383 25.8652 6.68652C26.0732 6.44629 26.2271 6.21924 26.3267 6.00537C26.4292 5.7915 26.4805 5.55859 26.4805 5.30664C26.4805 4.99609 26.3911 4.76172 26.2124 4.60352C26.0337 4.44238 25.7979 4.36182 25.5049 4.36182C25.2266 4.36182 24.9688 4.41748 24.7314 4.52881C24.4971 4.63721 24.2539 4.79248 24.002 4.99463L23.4351 4.31348C23.6138 4.16113 23.8042 4.02197 24.0063 3.896C24.2114 3.77002 24.4399 3.67041 24.6919 3.59717C24.9438 3.521 25.231 3.48291 25.5532 3.48291C25.9604 3.48291 26.312 3.55615 26.6079 3.70264C26.9038 3.84619 27.1309 4.04688 27.2891 4.30469C27.4502 4.5625 27.5308 4.86279 27.5308 5.20557C27.5308 5.55127 27.4619 5.87061 27.3242 6.16357C27.1865 6.45654 26.9902 6.74658 26.7354 7.03369C26.4805 7.31787 26.1772 7.62695 25.8257 7.96094L24.7139 9.04639V9.09473H27.7549V10Z" fill="white"/>
</svg>
