<?xml version="1.0" standalone="no"?>
<!DOCTYPE svg PUBLIC "-//W3C//DTD SVG 20010904//EN"
 "http://www.w3.org/TR/2001/REC-SVG-20010904/DTD/svg10.dtd">
<svg version="1.0" xmlns="http://www.w3.org/2000/svg"
 width="505.000000pt" height="360.000000pt" viewBox="0 0 505.000000 360.000000"
 preserveAspectRatio="xMidYMid meet">
<metadata>
Created by potrace 1.16, written by Peter Selinger 2001-2019
</metadata>
<g transform="translate(0.000000,360.000000) scale(0.100000,-0.100000)"
fill="#000000" stroke="none">
<path d="M0 1800 l0 -1800 2525 0 2525 0 0 1440 c-1 1259 -3 1440 -15 1440
-11 0 -15 -13 -15 -49 0 -45 -3 -52 -30 -68 -32 -18 -40 -43 -15 -43 8 0 15
-4 15 -9 0 -5 -7 -11 -15 -15 -8 -3 -15 -17 -15 -31 0 -14 -4 -25 -10 -25 -5
0 -22 -18 -36 -40 -29 -43 -44 -49 -64 -25 -7 8 -21 15 -31 15 -11 0 -19 5
-19 10 0 6 -18 10 -40 10 -22 0 -40 -4 -40 -10 0 -5 -18 -10 -40 -10 -38 0
-40 -2 -40 -30 l0 -30 -80 0 c-64 0 -80 3 -80 15 0 11 -11 15 -40 15 -37 0
-40 -2 -40 -29 0 -23 -6 -30 -32 -39 -26 -8 -28 -10 -10 -11 19 -1 22 -6 22
-41 0 -38 -2 -40 -30 -40 -28 0 -30 -2 -30 -40 0 -22 -4 -40 -10 -40 -5 0 -10
-18 -10 -40 0 -29 -4 -40 -15 -40 -12 0 -15 -16 -15 -80 0 -79 0 -80 -25 -80
-22 0 -25 -4 -25 -40 0 -29 -4 -40 -15 -40 -11 0 -15 -11 -15 -38 0 -41 -45
-122 -67 -122 -8 0 -13 -14 -13 -40 0 -29 -4 -40 -15 -40 -11 0 -15 -11 -15
-40 l0 -40 -50 0 c-27 0 -50 -4 -50 -9 0 -6 -13 -18 -30 -28 -16 -9 -30 -23
-30 -30 0 -7 -7 -13 -16 -13 -19 0 -90 -73 -75 -78 6 -2 11 -10 11 -18 0 -10
-12 -14 -40 -14 -22 0 -40 -5 -40 -11 0 -22 -30 -39 -67 -39 -34 0 -40 -4 -62
-41 -17 -31 -25 -38 -32 -28 -6 11 -11 11 -21 1 -6 -6 -27 -12 -45 -12 -18 0
-33 -4 -33 -9 0 -6 -14 -18 -30 -28 -29 -17 -41 -43 -20 -43 6 0 10 -18 10
-40 0 -22 -4 -40 -10 -40 -5 0 -10 7 -10 15 0 12 -16 15 -80 15 l-80 0 0 -67
c0 -65 -1 -69 -34 -95 -43 -34 -46 -34 -46 -3 0 23 -4 25 -40 25 l-40 0 0 -40
0 -40 -120 0 c-112 0 -120 -1 -120 -19 0 -16 -8 -21 -42 -24 l-43 -4 43 -1
c28 -1 42 -7 42 -16 0 -9 -20 -15 -61 -20 -93 -9 -99 -8 -99 14 0 15 -7 20
-29 20 -16 0 -32 6 -34 13 -4 9 -8 9 -15 -2 -10 -14 -30 -3 -94 54 -10 8 -25
15 -33 15 -11 0 -15 12 -15 50 0 28 -4 50 -10 50 -5 0 -10 -22 -10 -50 0 -27
-4 -50 -9 -50 -5 0 -12 -12 -15 -26 -9 -36 -37 -27 -58 18 -23 49 -37 56 -59
30 -9 -12 -21 -22 -26 -22 -4 0 -28 18 -53 40 -39 34 -42 39 -22 40 12 0 22 4
22 9 0 6 14 18 30 28 16 9 30 22 30 28 0 5 -18 23 -40 39 -22 17 -40 36 -40
43 0 8 -13 13 -35 13 -19 0 -35 4 -35 9 0 5 -16 19 -35 31 -20 12 -35 30 -35
40 0 10 -8 21 -19 25 -10 3 -31 17 -47 32 -17 15 -30 21 -32 14 -9 -26 -22 4
-22 50 0 44 -3 51 -27 61 -45 20 -63 47 -63 95 0 23 -4 43 -10 43 -6 0 -10 33
-10 80 0 68 -2 80 -17 80 -9 0 -34 8 -54 18 -28 12 -39 23 -39 40 0 12 -5 22
-11 22 -7 0 -9 10 -7 25 5 26 1 31 -64 87 -21 17 -38 40 -38 50 0 20 16 24 23
6 2 -7 8 -9 13 -5 4 4 3 17 -4 27 -14 24 -16 130 -2 130 20 0 9 48 -15 66 -14
10 -25 26 -25 35 0 20 -27 33 -33 16 -2 -6 -12 1 -21 16 -10 15 -27 27 -37 27
-11 0 -19 7 -19 15 0 9 -9 15 -25 15 -18 0 -26 7 -31 26 -4 14 -12 23 -19 21
-8 -4 -10 3 -7 19 2 13 10 24 18 24 19 0 32 29 35 82 3 52 -7 70 -51 88 -27
11 -30 17 -30 61 l0 49 -40 0 c-22 0 -40 4 -40 10 0 5 -11 12 -25 16 -16 4
-25 13 -25 25 0 12 9 21 25 25 21 5 25 12 25 45 l0 39 -41 0 c-31 0 -47 6 -64
24 -20 22 -21 26 -7 40 15 15 15 16 -1 16 -9 0 -17 -4 -17 -10 0 -5 -16 -10
-36 -10 -41 0 -73 25 -55 43 8 8 11 7 11 -6 0 -9 5 -17 10 -17 6 0 10 4 10 9
0 6 14 18 30 28 17 9 30 23 30 29 0 7 6 15 13 18 10 5 10 7 0 12 -7 3 -13 19
-13 35 0 16 -4 29 -10 29 -15 0 -12 77 2 83 20 8 -12 27 -44 27 -18 0 -28 -5
-28 -15 0 -12 -13 -15 -55 -15 -43 0 -55 3 -55 15 0 9 7 18 15 21 8 4 15 15
15 25 0 15 -7 19 -40 19 -22 0 -40 5 -40 10 0 6 4 10 9 10 16 0 20 54 5 63
-10 6 -14 29 -14 82 l0 75 -480 0 -480 0 0 -1800z"/>
</g>
</svg>
